<svg xmlns="http://www.w3.org/2000/svg" xmlns:xlink="http://www.w3.org/1999/xlink" width="1050" zoomAndPan="magnify" viewBox="0 0 787.5 299.999988" height="400" preserveAspectRatio="xMidYMid meet" version="1.2"><defs><clipPath id="ea42f09161"><path d="M 27.550781 19.324219 L 289.234375 19.324219 L 289.234375 281.007812 L 27.550781 281.007812 Z M 27.550781 19.324219 "/></clipPath><clipPath id="99863b2510"><path d="M 158.394531 19.324219 C 86.132812 19.324219 27.550781 77.90625 27.550781 150.164062 C 27.550781 222.425781 86.132812 281.007812 158.394531 281.007812 C 230.652344 281.007812 289.234375 222.425781 289.234375 150.164062 C 289.234375 77.90625 230.652344 19.324219 158.394531 19.324219 Z M 158.394531 19.324219 "/></clipPath></defs><g id="82d24665b5"><g clip-rule="nonzero" clip-path="url(#ea42f09161)"><g clip-rule="nonzero" clip-path="url(#99863b2510)"><path style=" stroke:none;fill-rule:nonzero;fill:#ffffff;fill-opacity:1;" d="M 27.550781 19.324219 L 289.234375 19.324219 L 289.234375 281.007812 L 27.550781 281.007812 Z M 27.550781 19.324219 "/></g></g><path style=" stroke:none;fill-rule:nonzero;fill:#ffd105;fill-opacity:1;" d="M 148.933594 27.8125 C 125.910156 29.636719 104.015625 37.761719 85.542969 51.355469 C 73.160156 60.449219 61.375 73.246094 53.742188 85.867188 C 52.089844 88.613281 51.886719 89.015625 52.3125 89.015625 C 52.441406 89.015625 61.699219 90.863281 72.882812 93.136719 L 93.25 97.261719 L 102.386719 97.636719 C 131.765625 98.8125 151.382812 99.1875 160.191406 98.761719 C 168.199219 98.386719 170.726562 98.558594 217.320312 102.609375 L 229.785156 103.683594 L 250.054688 102.359375 C 261.210938 101.632812 270.445312 101.011719 270.570312 100.960938 C 270.847656 100.859375 266.941406 92.835938 264.789062 89.136719 C 261.363281 83.191406 256.957031 76.867188 252.300781 71.273438 C 249.050781 67.347656 240.339844 58.730469 236.335938 55.453125 C 216.34375 39.132812 192.898438 29.765625 167.222656 27.789062 C 163.34375 27.492188 152.808594 27.515625 148.933594 27.8125 Z M 168.949219 56.40625 C 171.277344 57.101562 173.652344 58.527344 175.429688 60.253906 C 177.429688 62.203125 178.660156 64.175781 179.609375 66.898438 C 180.261719 68.722656 180.308594 69.222656 180.308594 72.398438 C 180.335938 76.492188 180.007812 77.96875 178.332031 81.417969 C 175.859375 86.542969 171.554688 90.488281 166.472656 92.289062 C 159.714844 94.664062 153.507812 93.414062 148.78125 88.664062 C 147.230469 87.113281 146.53125 86.191406 145.851562 84.765625 C 144.101562 81.09375 143.601562 77.46875 144.277344 73.574219 C 145.777344 64.925781 152.285156 58.027344 160.691406 56.152344 C 162.71875 55.703125 166.996094 55.828125 168.949219 56.40625 Z M 168.949219 56.40625 "/><path style=" stroke:none;fill-rule:nonzero;fill:#3b4d81;fill-opacity:1;" d="M 47.183594 97.960938 C 43.707031 105.558594 41.351562 112.105469 39.453125 119.628906 C 33.074219 144.617188 34.75 171.304688 44.207031 195.097656 C 49.234375 207.792969 56.917969 220.386719 65.574219 230.183594 C 66.976562 231.757812 67.226562 231.953125 67.40625 231.554688 C 67.503906 231.28125 70.132812 221.738281 73.234375 210.339844 C 76.5625 198.144531 79.1875 188.945312 79.636719 188 C 81.890625 183.148438 86.269531 179.328125 91.726562 177.453125 C 93.378906 176.878906 98.285156 176.03125 115.546875 173.382812 C 127.507812 171.53125 137.644531 169.984375 138.046875 169.910156 C 138.46875 169.855469 142 169.28125 145.929688 168.65625 C 155.109375 167.15625 168 165.132812 179.210938 163.359375 C 184.085938 162.609375 188.316406 161.9375 188.59375 161.859375 C 189.71875 161.609375 192.898438 166.03125 193.347656 168.53125 C 193.523438 169.40625 194.023438 169.832031 202.207031 175.902344 C 242.644531 205.941406 259.632812 218.460938 259.910156 218.460938 C 259.984375 218.460938 260.761719 217.363281 261.636719 216.015625 C 266.792969 208.066406 271.171875 198.921875 274.425781 189.449219 C 283.007812 164.335938 283.132812 136.871094 274.773438 111.605469 C 273.949219 109.082031 273.222656 107.007812 273.148438 107.007812 C 273.074219 107.007812 263.714844 108.804688 252.328125 111.007812 C 240.941406 113.207031 231.007812 115.082031 230.257812 115.15625 C 229.109375 115.277344 209.839844 114.40625 193.621094 113.503906 C 186.441406 113.105469 187.167969 112.980469 185.714844 114.929688 C 184.0625 117.179688 181.210938 122.753906 180.132812 125.875 C 178.332031 131.097656 177.535156 136.21875 177.835938 140.816406 C 178.257812 147.390625 180.035156 152.066406 183.710938 156.113281 C 184.414062 156.886719 184.964844 157.5625 184.914062 157.609375 C 184.738281 157.789062 141.347656 164.007812 140.796875 163.933594 C 140.222656 163.859375 140.144531 163.585938 138.820312 154.988281 C 136.667969 141.242188 135.441406 127.972656 135.417969 118.351562 L 135.417969 114.601562 L 112.84375 110.804688 L 90.25 107.007812 L 69.855469 100.761719 C 58.644531 97.3125 49.335938 94.460938 49.160156 94.386719 C 49.007812 94.335938 48.183594 95.8125 47.183594 97.960938 Z M 47.183594 97.960938 "/><path style=" stroke:none;fill-rule:nonzero;fill:#8967ac;fill-opacity:1;" d="M 131.339844 193.445312 L 97.132812 196.09375 L 73.808594 238.828125 L 75.410156 240.300781 C 83.644531 247.949219 94.429688 255.25 105.015625 260.34375 C 121.90625 268.441406 139.496094 272.441406 158.316406 272.441406 C 187.066406 272.441406 213.816406 262.871094 236.335938 244.523438 C 239.515625 241.953125 249.851562 231.878906 250.949219 230.308594 L 251.503906 229.558594 L 243.695312 226.335938 C 223.152344 217.914062 219.695312 216.3125 186.242188 199.867188 C 170.375 192.074219 167.472656 190.722656 166.597656 190.746094 C 166.023438 190.773438 150.179688 191.972656 131.339844 193.445312 Z M 131.339844 193.445312 "/><g style="fill:#ffffff;fill-opacity:1;"><g transform="translate(327.852753, 208.983294)"><path style="stroke:none" d="M 79.34375 -77.6875 L 34.140625 -77.6875 L 34.140625 -55.859375 L 69.3125 -55.859375 L 69.3125 -36.5625 L 34.140625 -36.5625 L 34.140625 0 L 11.8125 0 L 11.8125 -98.125 L 79.34375 -98.125 Z M 79.34375 -77.6875 "/></g></g><g style="fill:#ffffff;fill-opacity:1;"><g transform="translate(414.543591, 208.983294)"><path style="stroke:none" d=""/></g></g><g style="fill:#ffffff;fill-opacity:1;"><g transform="translate(450.590744, 208.983294)"><path style="stroke:none" d="M 19.546875 -109.296875 C 16.078125 -109.296875 13.304688 -108.191406 11.234375 -105.984375 C 9.160156 -103.785156 8.125 -100.828125 8.125 -97.109375 C 8.125 -93.554688 9.179688 -90.59375 11.296875 -88.21875 C 13.410156 -85.851562 16.160156 -84.671875 19.546875 -84.671875 C 23.179688 -84.671875 26.015625 -85.957031 28.046875 -88.53125 C 30.078125 -91.113281 31.09375 -93.972656 31.09375 -97.109375 C 31.09375 -100.828125 30.035156 -103.785156 27.921875 -105.984375 C 25.804688 -108.191406 23.015625 -109.296875 19.546875 -109.296875 Z M 30.59375 0 L 30.59375 -69.8125 L 8.625 -69.8125 L 8.625 0 Z M 30.59375 0 "/></g></g><g style="fill:#ffffff;fill-opacity:1;"><g transform="translate(491.588027, 208.983294)"><path style="stroke:none" d=""/></g></g><g style="fill:#ffffff;fill-opacity:1;"><g transform="translate(527.635181, 208.983294)"><path style="stroke:none" d="M 34.140625 -31.359375 C 34.140625 -26.273438 34.835938 -22.59375 36.234375 -20.3125 C 37.628906 -18.03125 39.382812 -16.65625 41.5 -16.1875 C 43.625 -15.71875 45.867188 -15.71875 48.234375 -16.1875 C 50.609375 -16.65625 52.8125 -17.097656 54.84375 -17.515625 L 53.4375 0 C 48.53125 1.4375 43.625 2.09375 38.71875 1.96875 C 33.8125 1.84375 29.367188 0.597656 25.390625 -1.765625 C 21.410156 -4.140625 18.210938 -7.882812 15.796875 -13 C 13.390625 -18.125 12.1875 -24.921875 12.1875 -33.390625 L 12.1875 -52.6875 L 2.28125 -52.6875 L 2.28125 -69.8125 L 12.1875 -69.8125 L 12.1875 -91.65625 L 34.140625 -91.65625 L 34.140625 -69.8125 L 49.890625 -69.8125 L 48.109375 -52.6875 L 34.140625 -52.6875 Z M 34.140625 -31.359375 "/></g></g><g style="fill:#ffffff;fill-opacity:1;"><g transform="translate(584.151977, 208.983294)"><path style="stroke:none" d=""/></g></g><g style="fill:#ffffff;fill-opacity:1;"><g transform="translate(620.199131, 208.983294)"><path style="stroke:none" d=""/></g></g><g style="fill:#ffffff;fill-opacity:1;"><g transform="translate(656.280768, 208.983294)"><path style="stroke:none" d="M 103.453125 -49.125 C 103.453125 -42.101562 102.4375 -35.566406 100.40625 -29.515625 C 98.375 -23.460938 95.457031 -18.148438 91.65625 -13.578125 L 103.203125 0 L 86.578125 14.59375 L 73.625 -0.890625 C 71 0.128906 68.160156 0.910156 65.109375 1.453125 C 62.066406 2.003906 58.894531 2.28125 55.59375 2.28125 C 48.488281 2.28125 41.992188 1.015625 36.109375 -1.515625 C 30.234375 -4.054688 25.15625 -7.613281 20.875 -12.1875 C 16.601562 -16.757812 13.300781 -22.195312 10.96875 -28.5 C 8.644531 -34.800781 7.484375 -41.675781 7.484375 -49.125 C 7.484375 -56.488281 8.601562 -63.28125 10.84375 -69.5 C 13.09375 -75.71875 16.332031 -81.132812 20.5625 -85.75 C 24.789062 -90.363281 29.867188 -93.9375 35.796875 -96.46875 C 41.722656 -99.007812 48.320312 -100.28125 55.59375 -100.28125 C 65.15625 -100.28125 73.535156 -98.117188 80.734375 -93.796875 C 87.929688 -89.484375 93.515625 -83.476562 97.484375 -75.78125 C 101.460938 -68.082031 103.453125 -59.195312 103.453125 -49.125 Z M 29.828125 -49.125 C 29.828125 -43.375 30.800781 -38.148438 32.75 -33.453125 C 34.695312 -28.753906 37.59375 -25.03125 41.4375 -22.28125 C 45.289062 -19.53125 50.007812 -18.15625 55.59375 -18.15625 C 61.1875 -18.15625 65.90625 -19.53125 69.75 -22.28125 C 73.601562 -25.03125 76.503906 -28.753906 78.453125 -33.453125 C 80.398438 -38.148438 81.375 -43.375 81.375 -49.125 C 81.375 -55.050781 80.335938 -60.335938 78.265625 -64.984375 C 76.191406 -69.640625 73.25 -73.300781 69.4375 -75.96875 C 65.625 -78.632812 61.007812 -79.96875 55.59375 -79.96875 C 49.925781 -79.96875 45.1875 -78.59375 41.375 -75.84375 C 37.570312 -73.09375 34.695312 -69.390625 32.75 -64.734375 C 30.800781 -60.078125 29.828125 -54.875 29.828125 -49.125 Z M 29.828125 -49.125 "/></g></g></g></svg>