<svg xmlns="http://www.w3.org/2000/svg" xmlns:xlink="http://www.w3.org/1999/xlink" width="500" zoomAndPan="magnify" viewBox="0 0 375 374.999991" height="500" preserveAspectRatio="xMidYMid meet" version="1.2"><defs><clipPath id="f1f1171a37"><path d="M 46.273438 13.34375 L 328.933594 13.34375 L 328.933594 296 L 46.273438 296 Z M 46.273438 13.34375 "/></clipPath><clipPath id="672849c17e"><path d="M 187.605469 13.34375 C 109.550781 13.34375 46.273438 76.617188 46.273438 154.671875 C 46.273438 232.722656 109.550781 296 187.605469 296 C 265.65625 296 328.933594 232.722656 328.933594 154.671875 C 328.933594 76.617188 265.65625 13.34375 187.605469 13.34375 Z M 187.605469 13.34375 "/></clipPath></defs><g id="0221c6a25b"><g clip-rule="nonzero" clip-path="url(#f1f1171a37)"><g clip-rule="nonzero" clip-path="url(#672849c17e)"><path style=" stroke:none;fill-rule:nonzero;fill:#ffffff;fill-opacity:1;" d="M 46.273438 13.34375 L 328.933594 13.34375 L 328.933594 296 L 46.273438 296 Z M 46.273438 13.34375 "/></g></g><path style=" stroke:none;fill-rule:nonzero;fill:#ffd105;fill-opacity:1;" d="M 177.382812 22.511719 C 152.519531 24.484375 128.867188 33.257812 108.917969 47.941406 C 95.539062 57.765625 82.808594 71.585938 74.566406 85.21875 C 72.78125 88.1875 72.5625 88.617188 73.019531 88.617188 C 73.160156 88.617188 83.160156 90.617188 95.242188 93.074219 L 117.242188 97.527344 L 127.109375 97.933594 C 158.839844 99.199219 180.03125 99.605469 189.546875 99.148438 C 198.199219 98.742188 200.925781 98.929688 251.253906 103.304688 L 264.71875 104.464844 L 286.609375 103.03125 C 298.664062 102.25 308.640625 101.578125 308.773438 101.523438 C 309.070312 101.414062 304.851562 92.746094 302.53125 88.75 C 298.828125 82.328125 294.070312 75.5 289.039062 69.457031 C 285.53125 65.214844 276.121094 55.90625 271.796875 52.367188 C 250.199219 34.742188 224.875 24.621094 197.144531 22.484375 C 192.953125 22.164062 181.570312 22.191406 177.382812 22.511719 Z M 199.007812 53.394531 C 201.519531 54.148438 204.089844 55.6875 206.007812 57.550781 C 208.167969 59.65625 209.496094 61.789062 210.523438 64.730469 C 211.226562 66.699219 211.277344 67.238281 211.277344 70.671875 C 211.304688 75.09375 210.953125 76.6875 209.144531 80.414062 C 206.46875 85.949219 201.820312 90.210938 196.328125 92.15625 C 189.03125 94.71875 182.328125 93.371094 177.21875 88.238281 C 175.546875 86.566406 174.789062 85.570312 174.058594 84.03125 C 172.167969 80.0625 171.628906 76.148438 172.355469 71.9375 C 173.976562 62.597656 181.007812 55.148438 190.085938 53.125 C 192.277344 52.636719 196.898438 52.773438 199.007812 53.394531 Z M 199.007812 53.394531 "/><path style=" stroke:none;fill-rule:nonzero;fill:#3b4d81;fill-opacity:1;" d="M 67.480469 98.285156 C 63.726562 106.488281 61.183594 113.5625 59.128906 121.6875 C 52.238281 148.675781 54.050781 177.503906 64.265625 203.203125 C 69.699219 216.914062 77.996094 230.519531 87.347656 241.101562 C 88.859375 242.800781 89.132812 243.015625 89.324219 242.585938 C 89.429688 242.289062 92.269531 231.980469 95.617188 219.671875 C 99.214844 206.496094 102.050781 196.5625 102.535156 195.539062 C 104.96875 190.300781 109.699219 186.167969 115.59375 184.144531 C 117.378906 183.527344 122.679688 182.609375 141.324219 179.746094 C 154.246094 177.75 165.195312 176.078125 165.625 175.996094 C 166.085938 175.9375 169.898438 175.320312 174.140625 174.644531 C 184.058594 173.023438 197.980469 170.839844 210.089844 168.921875 C 215.359375 168.109375 219.925781 167.386719 220.226562 167.300781 C 221.441406 167.035156 224.875 171.808594 225.359375 174.511719 C 225.550781 175.453125 226.089844 175.914062 234.929688 182.472656 C 278.609375 214.917969 296.960938 228.441406 297.257812 228.441406 C 297.339844 228.441406 298.179688 227.253906 299.121094 225.796875 C 304.691406 217.214844 309.421875 207.335938 312.9375 197.105469 C 322.207031 169.976562 322.34375 140.3125 313.316406 113.019531 C 312.421875 110.292969 311.636719 108.050781 311.558594 108.050781 C 311.476562 108.050781 301.367188 109.996094 289.066406 112.371094 C 276.769531 114.75 266.039062 116.773438 265.230469 116.855469 C 263.988281 116.988281 243.175781 116.042969 225.65625 115.070312 C 217.898438 114.636719 218.6875 114.503906 217.117188 116.609375 C 215.332031 119.039062 212.253906 125.058594 211.085938 128.433594 C 209.144531 134.074219 208.28125 139.609375 208.605469 144.574219 C 209.0625 151.671875 210.980469 156.722656 214.953125 161.09375 C 215.710938 161.929688 216.304688 162.660156 216.253906 162.714844 C 216.0625 162.902344 169.195312 169.625 168.597656 169.542969 C 167.980469 169.464844 167.894531 169.164062 166.460938 159.878906 C 164.140625 145.03125 162.8125 130.699219 162.789062 120.308594 L 162.789062 116.257812 L 138.40625 112.15625 L 113.996094 108.050781 L 91.96875 101.304688 C 79.859375 97.582031 69.804688 94.5 69.617188 94.421875 C 69.453125 94.367188 68.5625 95.960938 67.480469 98.285156 Z M 67.480469 98.285156 "/><path style=" stroke:none;fill-rule:nonzero;fill:#8967ac;fill-opacity:1;" d="M 158.382812 201.421875 L 121.433594 204.28125 L 96.242188 250.4375 L 97.972656 252.03125 C 106.867188 260.292969 118.511719 268.175781 129.949219 273.683594 C 148.195312 282.425781 167.191406 286.746094 187.519531 286.746094 C 218.574219 286.746094 247.472656 276.410156 271.796875 256.59375 C 275.230469 253.816406 286.394531 242.9375 287.582031 241.234375 L 288.175781 240.425781 L 279.746094 236.945312 C 257.554688 227.847656 253.820312 226.117188 217.683594 208.359375 C 200.546875 199.9375 197.410156 198.480469 196.46875 198.503906 C 195.84375 198.53125 178.734375 199.828125 158.382812 201.421875 Z M 158.382812 201.421875 "/><g style="fill:#ffffff;fill-opacity:1;"><g transform="translate(96.839741, 349.865621)"><path style="stroke:none" d="M 32.71875 -32.046875 L 14.078125 -32.046875 L 14.078125 -23.03125 L 28.59375 -23.03125 L 28.59375 -15.078125 L 14.078125 -15.078125 L 14.078125 0 L 4.875 0 L 4.875 -40.46875 L 32.71875 -40.46875 Z M 32.71875 -32.046875 "/></g></g><g style="fill:#ffffff;fill-opacity:1;"><g transform="translate(132.594529, 349.865621)"><path style="stroke:none" d=""/></g></g><g style="fill:#ffffff;fill-opacity:1;"><g transform="translate(147.461824, 349.865621)"><path style="stroke:none" d="M 8.0625 -45.078125 C 6.632812 -45.078125 5.488281 -44.625 4.625 -43.71875 C 3.769531 -42.8125 3.34375 -41.585938 3.34375 -40.046875 C 3.34375 -38.585938 3.78125 -37.367188 4.65625 -36.390625 C 5.53125 -35.410156 6.664062 -34.921875 8.0625 -34.921875 C 9.5625 -34.921875 10.726562 -35.453125 11.5625 -36.515625 C 12.40625 -37.578125 12.828125 -38.753906 12.828125 -40.046875 C 12.828125 -41.585938 12.390625 -42.8125 11.515625 -43.71875 C 10.640625 -44.625 9.488281 -45.078125 8.0625 -45.078125 Z M 12.625 0 L 12.625 -28.796875 L 3.5625 -28.796875 L 3.5625 0 Z M 12.625 0 "/></g></g><g style="fill:#ffffff;fill-opacity:1;"><g transform="translate(164.370752, 349.865621)"><path style="stroke:none" d=""/></g></g><g style="fill:#ffffff;fill-opacity:1;"><g transform="translate(179.238048, 349.865621)"><path style="stroke:none" d="M 14.078125 -12.9375 C 14.078125 -10.84375 14.363281 -9.320312 14.9375 -8.375 C 15.519531 -7.4375 16.242188 -6.867188 17.109375 -6.671875 C 17.984375 -6.484375 18.910156 -6.484375 19.890625 -6.671875 C 20.867188 -6.867188 21.78125 -7.050781 22.625 -7.21875 L 22.046875 0 C 20.015625 0.59375 17.988281 0.863281 15.96875 0.8125 C 13.945312 0.757812 12.113281 0.242188 10.46875 -0.734375 C 8.832031 -1.710938 7.515625 -3.253906 6.515625 -5.359375 C 5.523438 -7.472656 5.03125 -10.273438 5.03125 -13.765625 L 5.03125 -21.734375 L 0.9375 -21.734375 L 0.9375 -28.796875 L 5.03125 -28.796875 L 5.03125 -37.796875 L 14.078125 -37.796875 L 14.078125 -28.796875 L 20.578125 -28.796875 L 19.84375 -21.734375 L 14.078125 -21.734375 Z M 14.078125 -12.9375 "/></g></g><g style="fill:#ffffff;fill-opacity:1;"><g transform="translate(202.547847, 349.865621)"><path style="stroke:none" d=""/></g></g><g style="fill:#ffffff;fill-opacity:1;"><g transform="translate(217.415143, 349.865621)"><path style="stroke:none" d=""/></g></g><g style="fill:#ffffff;fill-opacity:1;"><g transform="translate(232.296661, 349.865621)"><path style="stroke:none" d="M 42.671875 -20.265625 C 42.671875 -17.367188 42.25 -14.671875 41.40625 -12.171875 C 40.570312 -9.671875 39.367188 -7.484375 37.796875 -5.609375 L 42.5625 0 L 35.703125 6.015625 L 30.359375 -0.359375 C 29.285156 0.0546875 28.117188 0.375 26.859375 0.59375 C 25.597656 0.820312 24.289062 0.9375 22.9375 0.9375 C 20 0.9375 17.316406 0.414062 14.890625 -0.625 C 12.460938 -1.675781 10.367188 -3.144531 8.609375 -5.03125 C 6.847656 -6.914062 5.488281 -9.15625 4.53125 -11.75 C 3.570312 -14.351562 3.09375 -17.191406 3.09375 -20.265625 C 3.09375 -23.296875 3.550781 -26.09375 4.46875 -28.65625 C 5.394531 -31.226562 6.726562 -33.460938 8.46875 -35.359375 C 10.21875 -37.265625 12.3125 -38.738281 14.75 -39.78125 C 17.195312 -40.832031 19.925781 -41.359375 22.9375 -41.359375 C 26.875 -41.359375 30.328125 -40.46875 33.296875 -38.6875 C 36.265625 -36.90625 38.566406 -34.425781 40.203125 -31.25 C 41.847656 -28.082031 42.671875 -24.421875 42.671875 -20.265625 Z M 12.296875 -20.265625 C 12.296875 -17.890625 12.695312 -15.734375 13.5 -13.796875 C 14.3125 -11.859375 15.507812 -10.320312 17.09375 -9.1875 C 18.6875 -8.050781 20.632812 -7.484375 22.9375 -7.484375 C 25.238281 -7.484375 27.179688 -8.050781 28.765625 -9.1875 C 30.359375 -10.320312 31.554688 -11.859375 32.359375 -13.796875 C 33.160156 -15.734375 33.5625 -17.890625 33.5625 -20.265625 C 33.5625 -22.703125 33.132812 -24.878906 32.28125 -26.796875 C 31.425781 -28.722656 30.210938 -30.234375 28.640625 -31.328125 C 27.066406 -32.429688 25.164062 -32.984375 22.9375 -32.984375 C 20.59375 -32.984375 18.632812 -32.414062 17.0625 -31.28125 C 15.5 -30.144531 14.3125 -28.617188 13.5 -26.703125 C 12.695312 -24.785156 12.296875 -22.640625 12.296875 -20.265625 Z M 12.296875 -20.265625 "/></g></g></g></svg>