<svg xmlns="http://www.w3.org/2000/svg" xmlns:xlink="http://www.w3.org/1999/xlink" width="1100" zoomAndPan="magnify" viewBox="0 0 824.88 299.999988" height="400" preserveAspectRatio="xMidYMid meet" version="1.2"><defs><clipPath id="dbd8867aaf"><path d="M 22.113281 19.261719 L 283.925781 19.261719 L 283.925781 281.070312 L 22.113281 281.070312 Z M 22.113281 19.261719 "/></clipPath><clipPath id="54bb6ef0e5"><path d="M 153.019531 19.261719 C 80.722656 19.261719 22.113281 77.871094 22.113281 150.167969 C 22.113281 222.460938 80.722656 281.070312 153.019531 281.070312 C 225.316406 281.070312 283.925781 222.460938 283.925781 150.167969 C 283.925781 77.871094 225.316406 19.261719 153.019531 19.261719 Z M 153.019531 19.261719 "/></clipPath></defs><g id="1c76232a9e"><g clip-rule="nonzero" clip-path="url(#dbd8867aaf)"><g clip-rule="nonzero" clip-path="url(#54bb6ef0e5)"><path style=" stroke:none;fill-rule:nonzero;fill:#ffffff;fill-opacity:1;" d="M 22.113281 19.261719 L 283.925781 19.261719 L 283.925781 281.070312 L 22.113281 281.070312 Z M 22.113281 19.261719 "/></g></g><path style=" stroke:none;fill-rule:nonzero;fill:#ffd105;fill-opacity:1;" d="M 143.554688 27.753906 C 120.523438 29.578125 98.613281 37.707031 80.136719 51.304688 C 67.742188 60.40625 55.953125 73.210938 48.316406 85.835938 C 46.664062 88.585938 46.464844 88.984375 46.886719 88.984375 C 47.015625 88.984375 56.277344 90.835938 67.46875 93.109375 L 87.847656 97.238281 L 96.988281 97.613281 C 126.378906 98.785156 146.007812 99.160156 154.820312 98.738281 C 162.832031 98.363281 165.359375 98.535156 211.976562 102.585938 L 224.445312 103.664062 L 244.722656 102.335938 C 255.890625 101.609375 265.128906 100.988281 265.25 100.9375 C 265.527344 100.835938 261.621094 92.808594 259.46875 89.109375 C 256.039062 83.160156 251.632812 76.832031 246.976562 71.234375 C 243.722656 67.308594 235.007812 58.683594 231.003906 55.40625 C 211 39.082031 187.542969 29.707031 161.855469 27.730469 C 157.972656 27.429688 147.433594 27.457031 143.554688 27.753906 Z M 163.582031 56.359375 C 165.910156 57.054688 168.289062 58.480469 170.066406 60.210938 C 172.066406 62.160156 173.296875 64.132812 174.246094 66.859375 C 174.898438 68.683594 174.949219 69.183594 174.949219 72.359375 C 174.972656 76.457031 174.648438 77.933594 172.96875 81.382812 C 170.492188 86.511719 166.1875 90.460938 161.101562 92.261719 C 154.34375 94.636719 148.132812 93.386719 143.402344 88.632812 C 141.851562 87.085938 141.152344 86.160156 140.472656 84.734375 C 138.71875 81.058594 138.222656 77.433594 138.898438 73.535156 C 140.398438 64.882812 146.910156 57.984375 155.320312 56.109375 C 157.347656 55.660156 161.628906 55.78125 163.582031 56.359375 Z M 163.582031 56.359375 "/><path style=" stroke:none;fill-rule:nonzero;fill:#3b4d81;fill-opacity:1;" d="M 41.757812 97.9375 C 38.277344 105.539062 35.921875 112.085938 34.023438 119.613281 C 27.636719 144.613281 29.316406 171.316406 38.777344 195.121094 C 43.808594 207.820312 51.496094 220.421875 60.15625 230.222656 C 61.558594 231.796875 61.808594 231.996094 61.988281 231.59375 C 62.085938 231.324219 64.714844 221.773438 67.820312 210.371094 C 71.148438 198.171875 73.777344 188.964844 74.226562 188.019531 C 76.480469 183.167969 80.863281 179.339844 86.320312 177.464844 C 87.972656 176.894531 92.882812 176.042969 110.152344 173.394531 C 122.121094 171.542969 132.261719 169.992188 132.664062 169.917969 C 133.085938 169.863281 136.617188 169.292969 140.550781 168.664062 C 149.734375 167.164062 162.628906 165.140625 173.847656 163.363281 C 178.726562 162.613281 182.960938 161.941406 183.234375 161.863281 C 184.359375 161.617188 187.542969 166.039062 187.992188 168.542969 C 188.167969 169.414062 188.667969 169.839844 196.855469 175.917969 C 237.3125 205.96875 254.308594 218.496094 254.585938 218.496094 C 254.660156 218.496094 255.4375 217.394531 256.3125 216.046875 C 261.472656 208.09375 265.851562 198.945312 269.109375 189.46875 C 277.695312 164.339844 277.820312 136.863281 269.460938 111.585938 C 268.632812 109.0625 267.90625 106.984375 267.832031 106.984375 C 267.757812 106.984375 258.394531 108.785156 247 110.988281 C 235.609375 113.1875 225.667969 115.0625 224.917969 115.136719 C 223.769531 115.261719 204.492188 114.386719 188.265625 113.484375 C 181.082031 113.085938 181.808594 112.960938 180.355469 114.910156 C 178.703125 117.160156 175.851562 122.738281 174.769531 125.863281 C 172.96875 131.089844 172.171875 136.214844 172.472656 140.8125 C 172.894531 147.386719 174.671875 152.066406 178.351562 156.113281 C 179.050781 156.890625 179.605469 157.566406 179.554688 157.613281 C 179.378906 157.792969 135.96875 164.015625 135.414062 163.941406 C 134.84375 163.867188 134.765625 163.589844 133.4375 154.988281 C 131.285156 141.238281 130.058594 127.960938 130.03125 118.335938 L 130.03125 114.585938 L 107.449219 110.785156 L 84.84375 106.984375 L 64.4375 100.734375 C 53.222656 97.285156 43.910156 94.433594 43.734375 94.359375 C 43.582031 94.308594 42.757812 95.785156 41.757812 97.9375 Z M 41.757812 97.9375 "/><path style=" stroke:none;fill-rule:nonzero;fill:#8967ac;fill-opacity:1;" d="M 125.953125 193.46875 L 91.726562 196.117188 L 68.394531 238.871094 L 70 240.347656 C 78.234375 247.996094 89.023438 255.300781 99.617188 260.398438 C 116.515625 268.5 134.113281 272.5 152.941406 272.5 C 181.707031 272.5 208.472656 262.925781 231.003906 244.570312 C 234.183594 242 244.523438 231.921875 245.625 230.347656 L 246.175781 229.597656 L 238.367188 226.371094 C 217.808594 217.945312 214.351562 216.34375 180.882812 199.894531 C 165.007812 192.09375 162.101562 190.742188 161.230469 190.765625 C 160.652344 190.792969 144.804688 191.992188 125.953125 193.46875 Z M 125.953125 193.46875 "/><g style="fill:#3b4d81;fill-opacity:1;"><g transform="translate(359.867535, 201.211573)"><path style="stroke:none" d="M 79.375 -77.734375 L 34.171875 -77.734375 L 34.171875 -55.875 L 69.34375 -55.875 L 69.34375 -36.578125 L 34.171875 -36.578125 L 34.171875 0 L 11.8125 0 L 11.8125 -98.171875 L 79.375 -98.171875 Z M 79.375 -77.734375 "/></g></g><g style="fill:#3b4d81;fill-opacity:1;"><g transform="translate(446.600797, 201.211573)"><path style="stroke:none" d=""/></g></g><g style="fill:#3b4d81;fill-opacity:1;"><g transform="translate(482.665592, 201.211573)"><path style="stroke:none" d="M 19.5625 -109.34375 C 16.09375 -109.34375 13.316406 -108.242188 11.234375 -106.046875 C 9.160156 -103.847656 8.125 -100.882812 8.125 -97.15625 C 8.125 -93.601562 9.179688 -90.640625 11.296875 -88.265625 C 13.421875 -85.898438 16.175781 -84.71875 19.5625 -84.71875 C 23.195312 -84.71875 26.03125 -86.003906 28.0625 -88.578125 C 30.09375 -91.160156 31.109375 -94.019531 31.109375 -97.15625 C 31.109375 -100.882812 30.050781 -103.847656 27.9375 -106.046875 C 25.820312 -108.242188 23.03125 -109.34375 19.5625 -109.34375 Z M 30.609375 0 L 30.609375 -69.859375 L 8.640625 -69.859375 L 8.640625 0 Z M 30.609375 0 "/></g></g><g style="fill:#3b4d81;fill-opacity:1;"><g transform="translate(523.682937, 201.211573)"><path style="stroke:none" d=""/></g></g><g style="fill:#3b4d81;fill-opacity:1;"><g transform="translate(559.747732, 201.211573)"><path style="stroke:none" d="M 34.171875 -31.375 C 34.171875 -26.289062 34.867188 -22.601562 36.265625 -20.3125 C 37.660156 -18.03125 39.414062 -16.65625 41.53125 -16.1875 C 43.644531 -15.726562 45.882812 -15.726562 48.25 -16.1875 C 50.625 -16.65625 52.828125 -17.101562 54.859375 -17.53125 L 53.46875 0 C 48.5625 1.4375 43.648438 2.09375 38.734375 1.96875 C 33.828125 1.84375 29.382812 0.597656 25.40625 -1.765625 C 21.425781 -4.140625 18.226562 -7.890625 15.8125 -13.015625 C 13.394531 -18.140625 12.1875 -24.9375 12.1875 -33.40625 L 12.1875 -52.703125 L 2.28125 -52.703125 L 2.28125 -69.859375 L 12.1875 -69.859375 L 12.1875 -91.703125 L 34.171875 -91.703125 L 34.171875 -69.859375 L 49.90625 -69.859375 L 48.140625 -52.703125 L 34.171875 -52.703125 Z M 34.171875 -31.375 "/></g></g><g style="fill:#3b4d81;fill-opacity:1;"><g transform="translate(616.292186, 201.211573)"><path style="stroke:none" d=""/></g></g><g style="fill:#3b4d81;fill-opacity:1;"><g transform="translate(652.35698, 201.211573)"><path style="stroke:none" d=""/></g></g><g style="fill:#3b4d81;fill-opacity:1;"><g transform="translate(688.456275, 201.211573)"><path style="stroke:none" d="M 103.515625 -49.15625 C 103.515625 -42.125 102.492188 -35.582031 100.453125 -29.53125 C 98.421875 -23.476562 95.503906 -18.164062 91.703125 -13.59375 L 103.25 0 L 86.625 14.609375 L 73.65625 -0.890625 C 71.03125 0.128906 68.191406 0.910156 65.140625 1.453125 C 62.097656 2.003906 58.925781 2.28125 55.625 2.28125 C 48.507812 2.28125 42.007812 1.015625 36.125 -1.515625 C 30.25 -4.054688 25.171875 -7.613281 20.890625 -12.1875 C 16.617188 -16.757812 13.316406 -22.195312 10.984375 -28.5 C 8.660156 -34.8125 7.5 -41.695312 7.5 -49.15625 C 7.5 -56.519531 8.617188 -63.3125 10.859375 -69.53125 C 13.097656 -75.757812 16.332031 -81.179688 20.5625 -85.796875 C 24.800781 -90.410156 29.882812 -93.984375 35.8125 -96.515625 C 41.738281 -99.054688 48.34375 -100.328125 55.625 -100.328125 C 65.195312 -100.328125 73.582031 -98.164062 80.78125 -93.84375 C 87.976562 -89.53125 93.566406 -83.519531 97.546875 -75.8125 C 101.523438 -68.113281 103.515625 -59.226562 103.515625 -49.15625 Z M 29.84375 -49.15625 C 29.84375 -43.394531 30.816406 -38.164062 32.765625 -33.46875 C 34.710938 -28.769531 37.613281 -25.039062 41.46875 -22.28125 C 45.320312 -19.53125 50.039062 -18.15625 55.625 -18.15625 C 61.21875 -18.15625 65.9375 -19.53125 69.78125 -22.28125 C 73.632812 -25.039062 76.535156 -28.769531 78.484375 -33.46875 C 80.429688 -38.164062 81.40625 -43.394531 81.40625 -49.15625 C 81.40625 -55.082031 80.367188 -60.375 78.296875 -65.03125 C 76.222656 -69.6875 73.28125 -73.347656 69.46875 -76.015625 C 65.65625 -78.679688 61.039062 -80.015625 55.625 -80.015625 C 49.957031 -80.015625 45.21875 -78.640625 41.40625 -75.890625 C 37.59375 -73.140625 34.710938 -69.429688 32.765625 -64.765625 C 30.816406 -60.109375 29.84375 -54.90625 29.84375 -49.15625 Z M 29.84375 -49.15625 "/></g></g></g></svg>